PathFileType	4	(X/Y/Z)	c:/Users/goper/Files/vsCode/490R/osim_files/C11/C11_RoM_01.trc
DataRate	CameraRate	NumFrames	NumMarkers	Units                	OrigDataRate	OrigDataStartFrame	OrigNumFrames
120.00	120.00	9	36	mm	120.0	1647	2195
                Frame#	Time	LPSI			LASI			LTH1			LTH2			LTH3			LTH4			LLFE			LMFE			LSH1			LSH2			LSH3			LSH4			LLMA			LMMA			LCAL			LMTP			LTOE			LMTP			RPSI			RASI			RTH1			RTH2			RTH3			RTH4			RLFE			RMFE			RSH1			RSH2			RSH3			RSH4			RLMA			RMMA			RCAL			RMTP			RTOE			RMTP		
		X1	Y1	Z1	X2	Y2	Z2	X3	Y3	Z3	X4	Y4	Z4	X5	Y5	Z5	X6	Y6	Z6	X7	Y7	Z7	X8	Y8	Z8	X9	Y9	Z9	X10	Y10	Z10	X11	Y11	Z11	X12	Y12	Z12	X13	Y13	Z13	X14	Y14	Z14	X15	Y15	Z15	X16	Y16	Z16	X17	Y17	Z17	X18	Y18	Z18	X19	Y19	Z19	X20	Y20	Z20	X21	Y21	Z21	X22	Y22	Z22	X23	Y23	Z23	X24	Y24	Z24	X25	Y25	Z25	X26	Y26	Z26	X27	Y27	Z27	X28	Y28	Z28	X29	Y29	Z29	X30	Y30	Z30	X31	Y31	Z31	X32	Y32	Z32	X33	Y33	Z33	X34	Y34	Z34	X35	Y35	Z35	X36	Y36	Z36

1647	13.71667	-447.52872	715.31067	453.16211	-293.95090	613.15485	373.49957	-196.04373	476.83282	250.89500	-151.69330	462.93018	242.76015	-175.15660	532.64813	249.98474	-132.82489	512.29309	244.10112	-88.57249	432.88504	239.62854	-57.84753	432.64694	353.07797	-147.55782	373.53156	228.30650	-170.83098	335.81357	225.90732	-97.68420	338.18655	220.95012	-127.52028	304.49667	220.10953	-305.77414	101.30078	267.06488	-266.21591	105.23850	359.09207	-364.97580	64.88815	322.95370	-205.23932	39.99144	217.57510	-127.46916	54.32764	280.26431	-163.70087	44.76902	330.17441	-434.96552	716.56464	536.40009	-299.83112	607.64026	604.76202	-184.95001	463.63672	713.45532	-143.55669	449.67621	717.53027	-156.77660	520.15277	706.93964	-120.05572	497.73010	713.64771	-80.64980	425.47534	713.63440	-78.47575	407.21725	607.25427	-148.98048	367.20081	724.52368	-169.86252	326.23880	722.04498	-98.83260	330.81238	723.11279	-128.11087	294.97470	723.50677	-307.09943	99.86349	676.56232	-275.72452	102.81030	583.17535	-370.96918	63.74591	630.30603	-156.85919	48.25977	617.39868	-153.79051	59.95806	667.46161	-197.95486	37.96956	727.78241
1648	13.72500	-446.96460	723.20642	453.21176	-293.74973	620.28516	373.90158	-196.88014	480.19772	251.40508	-152.72083	465.59033	243.30672	-175.33560	535.61401	250.21729	-133.27213	514.69366	244.44717	-90.08114	434.35596	240.17030	-59.36500	434.25735	353.43484	-149.06453	374.47055	228.65469	-172.09683	336.66122	226.24846	-98.93346	339.37903	221.29517	-128.74504	305.46423	220.48883	-305.88077	101.24115	266.96188	-266.38840	105.29760	359.02914	-365.16757	64.93797	322.78256	-205.26064	39.97829	217.56702	-127.46693	54.36383	280.24078	-163.69890	44.79705	330.11514	-434.60114	724.41418	536.49054	-299.91556	614.65515	604.94476	-186.17607	466.59668	713.24323	-144.66382	452.39575	717.51129	-156.84378	523.11359	707.17169	-120.46951	500.25089	713.77521	-82.15528	427.25903	713.59229	-80.22721	409.23795	607.31787	-150.67619	368.17303	724.63226	-171.32826	327.12045	722.18890	-100.21937	332.11703	723.10968	-129.41727	296.08270	723.49170	-307.27173	99.83327	676.77509	-275.94254	102.91251	583.34558	-371.04382	63.67178	630.39368	-156.92992	48.31015	617.43225	-153.80666	59.99598	667.46973	-197.97061	37.94454	727.81256
1649	13.73333	-446.38779	731.30286	453.30167	-293.66156	627.48187	374.41302	-197.78125	483.60712	251.98526	-153.90051	468.25204	243.88129	-175.50645	538.63385	250.42010	-133.67125	517.08453	244.79872	-91.71597	435.96384	240.84032	-61.00535	435.83649	353.80521	-150.77412	375.41696	229.17445	-173.46219	337.44614	226.60553	-100.28481	340.56720	221.72829	-129.87166	306.59448	220.76979	-306.05936	101.18288	266.85822	-266.56015	105.32358	358.94672	-365.45538	64.96729	322.64899	-205.27110	39.94029	217.55861	-127.47813	54.35575	280.23801	-163.73315	44.80118	330.10297	-434.18063	732.51935	536.62469	-300.00049	621.87830	605.12384	-187.33780	469.67709	713.13507	-145.93074	455.12122	717.40021	-157.20029	526.04663	707.62885	-122.13754	501.69797	714.45306	-84.02129	428.92847	713.39899	-82.05861	411.22345	607.32892	-152.46474	369.08337	724.64374	-172.88866	327.93591	722.16632	-101.67110	333.46207	723.06580	-130.68292	297.23355	723.45111	-307.45694	99.76484	676.95056	-276.13376	102.99287	583.49432	-371.17487	63.56453	630.50073	-156.97868	48.32500	617.47345	-153.82812	60.01584	667.49457	-197.98503	37.91212	727.85345
1650	13.74167	-445.82776	739.36292	453.33215	-293.78879	634.62421	374.86697	-198.82373	487.02652	251.90146	-153.95604	472.35629	243.09703	-175.63829	541.69141	250.64819	-134.12404	519.58606	245.18518	-93.39491	437.63910	241.37271	-62.56998	437.52655	354.26804	-152.59465	376.24356	229.60205	-175.01482	338.27441	226.99533	-101.78497	341.86960	222.15567	-131.13329	307.64679	221.04185	-306.25171	101.11539	266.74716	-266.76550	105.34663	358.85620	-365.71173	64.97126	322.53070	-205.30518	39.90732	217.55009	-127.46109	54.37311	280.23898	-163.72835	44.81832	330.10403	-433.51535	740.59039	536.75232	-300.07715	629.30048	605.29901	-188.61176	472.71069	712.96869	-147.19098	457.92487	717.30322	-157.40591	529.03229	707.86633	-122.68510	504.07172	714.56525	-85.66294	430.77649	713.26892	-83.95554	413.27457	607.25500	-154.21051	370.05692	724.55188	-174.35255	328.81857	722.11328	-103.31014	334.76373	723.01459	-132.00700	298.40112	723.43958	-307.52377	99.80891	677.19629	-276.38290	103.03975	583.65503	-371.26035	63.42141	630.61237	-157.03551	48.35077	617.52771	-153.86781	60.03708	667.53510	-198.02853	37.86228	727.89240
1651	13.75000	-445.22043	747.53558	453.47629	-293.87662	642.21136	375.28693	-199.89975	490.37234	252.54076	-155.15573	475.15228	243.74455	-175.96466	544.78040	250.91183	-134.68045	522.11414	245.55101	-95.11106	439.31375	242.05887	-64.37998	439.24173	354.68387	-154.40038	377.14545	230.07738	-176.51186	339.12238	227.30064	-103.23075	343.29108	222.41754	-132.59117	308.71219	221.54788	-306.42560	101.05127	266.61731	-266.94638	105.37863	358.79303	-365.10504	64.40185	322.48682	-205.33975	39.87697	217.53491	-127.47492	54.39480	280.24677	-163.75360	44.81573	330.10260	-433.06995	748.81836	536.80304	-300.13687	636.91266	605.46954	-189.92346	476.00540	712.81769	-148.56778	460.79626	717.16833	-157.76140	531.95721	708.09741	-123.48415	506.53043	714.69250	-87.44413	432.64825	713.10260	-85.94869	415.35739	607.18079	-156.11343	371.10724	724.40405	-176.23672	329.73071	722.03394	-104.98446	336.22461	722.85962	-133.46449	299.64716	723.30487	-307.74374	99.70396	677.42511	-276.62503	103.07985	583.80426	-371.49976	63.30412	630.78168	-157.09949	48.40059	617.57446	-153.93338	60.06815	667.57568	-197.70845	37.88501	728.00256
1652	13.75833	-444.81448	755.88696	453.49265	-293.85333	650.27057	375.63959	-201.08353	493.81787	253.25493	-156.42207	477.99915	244.37457	-176.15660	547.86255	251.13457	-135.19740	524.65350	245.96156	-96.99815	441.04684	242.67281	-66.31863	440.92935	355.11884	-156.32056	378.14059	230.53937	-178.26534	340.00128	227.73326	-104.86543	344.65796	222.53363	-133.97134	310.00113	221.52310	-306.65225	100.94392	266.47632	-267.12897	105.40676	358.68887	-365.18622	64.25191	322.38205	-205.35995	39.82424	217.51935	-127.50663	54.39233	280.26566	-163.79631	44.81865	330.09619	-432.70840	757.21466	536.88501	-300.17093	644.70557	605.63501	-191.27086	479.14728	712.57135	-150.02432	463.65317	716.99908	-158.13467	534.95068	708.21765	-124.24876	508.86893	714.77142	-89.51747	434.46207	712.78241	-87.90384	417.52960	606.99530	-158.13751	372.21347	724.21448	-177.86502	330.70908	721.92731	-106.81216	337.62082	722.63983	-134.98526	300.88531	723.16656	-308.03104	99.45964	677.53485	-276.83923	103.11634	583.93811	-371.82303	63.23701	630.96185	-156.95068	48.66229	617.40277	-154.00031	60.07409	667.59802	-198.12596	37.73847	727.97870
1653	13.76667	-444.30331	764.38708	453.59888	-293.74918	658.46436	375.95886	-202.27121	497.31442	253.88501	-157.76514	480.93439	245.05820	-175.28833	552.30310	251.23497	-135.88937	527.14465	246.39055	-98.97888	442.78613	243.40182	-68.28188	442.72693	355.63214	-158.34023	379.19681	231.03542	-179.90825	340.90121	228.05116	-106.50524	346.20642	222.97614	-135.51366	311.34732	221.94720	-306.83414	100.82552	266.31381	-267.29980	105.42579	358.58841	-365.24701	64.08325	322.23203	-205.38345	39.77165	217.51070	-127.49643	54.40800	280.27225	-163.80826	44.78841	330.06296	-432.32944	765.76068	536.97302	-300.17062	652.67010	605.79486	-192.64938	482.38626	712.31110	-151.52312	466.52792	716.73981	-158.52222	537.91095	708.32111	-125.10287	511.30362	714.65479	-91.36466	436.46158	712.47870	-90.10007	419.58282	606.75153	-160.27122	373.33377	723.93616	-179.69148	331.65958	721.61035	-108.61458	339.09918	722.40118	-136.60484	302.23572	723.01471	-308.19751	99.42450	677.79395	-277.10287	103.14146	584.06903	-372.16959	63.06409	631.05896	-157.03391	48.66351	617.45386	-154.05362	60.12659	667.63489	-198.12929	37.69040	727.98724
1654	13.77500	-443.94235	772.98444	453.55499	-293.55569	666.99951	376.35056	-203.46989	500.97043	254.60054	-159.28381	483.82413	245.72972	-175.67938	555.54114	251.51866	-136.59668	529.68799	246.86009	-101.05610	444.57574	243.98755	-70.33349	444.52371	356.11392	-160.44489	380.37546	231.57741	-181.77023	341.94162	228.55684	-108.43554	347.59723	223.50937	-137.20370	312.58865	222.37106	-307.00912	100.74830	266.15634	-267.56165	105.45487	358.46527	-364.48917	63.56311	322.19873	-205.40256	39.73669	217.51770	-127.51635	54.44107	280.27640	-163.84529	44.82167	330.02362	-431.82333	774.41364	537.06964	-300.12726	660.79718	605.94855	-192.39142	488.29547	712.55566	-153.03415	469.49097	716.34143	-158.94128	540.99951	708.30219	-125.97018	513.77069	714.53638	-93.55322	438.35675	712.02832	-92.32268	421.64478	606.36835	-162.48343	374.48041	723.56677	-181.59341	332.74216	721.46313	-110.57588	340.69064	722.08295	-138.31538	303.56915	722.73962	-308.42068	99.35712	677.94763	-277.36447	103.17088	584.24152	-371.59155	62.59267	631.34100	-157.12238	48.69875	617.49097	-154.10973	60.20691	667.62952	-198.13306	37.69128	727.99286
1655	13.78333	-443.33032	781.66577	453.56268	-293.33676	675.65051	376.67313	-204.80130	504.54535	255.24895	-160.75790	486.82758	246.45689	-175.95918	558.89264	251.79575	-137.43307	532.28186	247.30948	-103.27024	446.45044	244.79260	-72.42407	446.49554	356.60413	-162.50278	381.63995	232.08554	-183.44934	343.28040	228.53465	-109.94049	349.33539	223.63464	-138.57387	314.29068	222.37236	-307.12051	100.68402	266.01544	-267.82538	105.55497	358.33661	-364.59891	63.52579	322.05991	-205.40520	39.74203	217.51128	-127.52139	54.52475	280.26056	-163.87527	44.89909	329.99713	-431.53568	783.21985	537.08380	-300.03204	669.07751	606.09552	-193.79703	492.13074	712.13422	-154.06422	473.03757	715.93805	-159.46230	544.06543	708.27142	-126.87912	516.32269	714.29730	-95.87329	440.30554	711.79413	-94.74891	423.73761	605.99414	-164.60587	375.69690	723.21631	-183.67387	333.88602	721.06885	-112.52296	342.39978	721.70917	-140.00580	305.00879	722.38336	-308.64136	99.32592	678.08600	-277.63654	103.24775	584.41138	-371.84790	62.51741	631.48541	-157.19211	48.75079	617.51532	-154.18231	60.28045	667.60358	-198.16220	37.72445	728.01208
